# File created by Blade
# Date/Time:  Thu Sep 25 19:36:54 2014
# Frame Rate: 120.000 fps
#------------------------------------------------------
:FULLY-SPECIFIED
:DEGREES
1012
root -6.030819 32.784926 1.845431 2.545084 3.813593 2.182132
Spine -5.277585 5.477451 4.197294
Head -19.074338 -1.415121 3.070941
LeftShoulder -11.382494 21.357628 4.162852
LeftArm 27.285448 43.515397 -64.461741
LeftForeArm 0.184252 0.000000 17.890641
LeftHand -24.130721 -0.000000 -8.070017
LeftHandThumb1 -26.253704 0.000000 33.147579
RightShoulder -20.899429 10.378308 -18.621962
RightArm -13.216610 -46.516570 95.941723
RightForeArm -12.293660 0.000000 27.044919
RightHand -2.305271 -0.000000 15.923073
RightHandThumb1 -24.326973 -0.000000 -32.862282
LeftUpLeg -1.576351 1.394019 3.039761
LeftLeg 5.565790 -0.000000 -0.000000
LeftFoot -11.360452 4.797838 -15.331804
LeftToeBase 4.915190 -0.000000 -0.000000
RightUpLeg 3.029973 -4.662361 0.423177
RightLeg 2.129878 -0.000000 -0.000000
RightFoot -12.887102 -7.603052 4.484304
RightToeBase 0.418752 -0.000000 -0.000000
1013
root -6.032636 32.781304 1.854819 2.530093 3.841229 2.144941
Spine -5.249510 5.492849 4.260727
Head -19.066425 -1.395596 3.041213
LeftShoulder -11.482292 21.479517 4.071938
LeftArm 27.206775 43.576900 -64.552853
LeftForeArm -0.075166 -0.000000 18.031231
LeftHand -24.058681 -0.000000 -8.186677
LeftHandThumb1 -26.253704 0.000000 33.147579
RightShoulder -20.879509 10.226973 -18.507119
RightArm -13.462281 -46.664616 96.124583
RightForeArm -11.846924 0.000000 27.043306
RightHand -2.204069 -0.000000 16.388197
RightHandThumb1 -24.326973 -0.000000 -32.862282
LeftUpLeg -1.579924 1.405924 3.097065
LeftLeg 5.631169 -0.000000 -0.000000
LeftFoot -11.420910 4.701885 -15.419137
LeftToeBase 4.882762 -0.000000 -0.000000
RightUpLeg 3.112962 -4.727735 0.474498
RightLeg 2.004458 -0.000000 -0.000000
RightFoot -12.770113 -7.678804 4.320332
RightToeBase 0.382302 -0.000000 -0.000000
1014
root -6.025607 32.777115 1.868198 2.474970 3.871803 2.153850
Spine -5.176617 5.504195 4.292651
Head -19.042974 -1.396347 3.000297
LeftShoulder -11.559444 21.546289 3.982702
LeftArm 26.999349 43.537034 -64.810924
LeftForeArm -0.357292 -0.000000 18.170235
LeftHand -24.026327 0.000000 -8.097239
LeftHandThumb1 -26.253704 0.000000 33.147579
RightShoulder -20.859735 10.152022 -18.431677
RightArm -13.814337 -46.792133 96.413221
RightForeArm -11.284123 -0.000000 26.973071
RightHand -2.102569 0.000000 16.833360
RightHandThumb1 -24.326973 -0.000000 -32.862282
LeftUpLeg -1.524994 1.396097 3.085123
LeftLeg 5.674286 -0.000000 -0.000000
LeftFoot -11.449006 4.641614 -15.589049
LeftToeBase 4.764401 -0.000000 -0.000000
RightUpLeg 3.242427 -4.650229 0.475668
RightLeg 1.893738 -0.000000 -0.000000
RightFoot -12.710827 -7.927783 4.137659
RightToeBase 0.407127 -0.000000 -0.000000
1015
root -6.020974 32.774061 1.875387 2.476560 3.897356 2.146965
Spine -5.163462 5.526637 4.312594
Head -19.021862 -1.374950 3.026301
LeftShoulder -11.647401 21.605727 3.913501
LeftArm 26.840337 43.476434 -65.080734
LeftForeArm -0.832699 -0.000000 18.273327
LeftHand -23.888468 0.000000 -7.985778
LeftHandThumb1 -26.253704 0.000000 33.147579
RightShoulder -20.856445 10.045753 -18.327227
RightArm -14.097976 -46.947763 96.652584
RightForeArm -10.756455 -0.000000 26.862157
RightHand -2.066740 -0.000000 17.167239
RightHandThumb1 -24.326973 -0.000000 -32.862282
LeftUpLeg -1.557722 1.404331 3.088214
LeftLeg 5.766703 -0.000000 -0.000000
LeftFoot -11.536084 4.627722 -15.512952
LeftToeBase 4.813885 -0.000000 -0.000000
RightUpLeg 3.353642 -4.481088 0.519505
RightLeg 1.664604 -0.000000 -0.000000
RightFoot -12.569684 -8.329540 3.894907
RightToeBase 0.391653 -0.000000 -0.000000
1016
root -6.014992 32.771381 1.882020 2.472692 3.914196 2.150474
Spine -5.143670 5.556774 4.314719
Head -18.989221 -1.354826 3.059207
LeftShoulder -11.691356 21.619317 3.870504
LeftArm 26.569318 43.326336 -65.511107
LeftForeArm -1.211115 -0.000000 18.312105
LeftHand -23.878119 -0.000000 -8.112842
LeftHandThumb1 -26.253704 0.000000 33.147579
RightShoulder -20.837526 9.978995 -18.222342
RightArm -14.410396 -47.081866 96.930181
RightForeArm -10.161501 0.000000 26.657362
RightHand -1.969989 -0.000000 17.694511
RightHandThumb1 -24.326973 -0.000000 -32.862282
LeftUpLeg -1.590197 1.419766 3.075166
LeftLeg 5.872637 -0.000000 -0.000000
LeftFoot -11.609303 4.585144 -15.493007
LeftToeBase 4.850490 -0.000000 -0.000000
RightUpLeg 3.409345 -4.534841 0.525722
RightLeg 1.563981 -0.000000 -0.000000
RightFoot -12.488035 -8.422393 3.756627
RightToeBase 0.368550 -0.000000 -0.000000
1017
root -6.006058 32.769395 1.887600 2.477412 3.937405 2.159796
Spine -5.133926 5.585962 4.308960
Head -18.937108 -1.338365 3.103202
LeftShoulder -11.732021 21.623646 3.819872
LeftArm 26.285986 43.077506 -66.012791
LeftForeArm -1.506330 -0.000000 18.334385
LeftHand -23.808805 0.000000 -8.152267
LeftHandThumb1 -26.253704 0.000000 33.147579
RightShoulder -20.823127 9.917069 -18.143216
RightArm -14.683260 -47.071718 97.222119
RightForeArm -9.782629 -0.000000 26.330054
RightHand -1.807849 -0.000000 18.067456
RightHandThumb1 -24.326973 -0.000000 -32.862282
LeftUpLeg -1.643816 1.432146 3.040630
LeftLeg 5.998334 -0.000000 -0.000000
LeftFoot -11.715906 4.566463 -15.456284
LeftToeBase 4.888574 -0.000000 -0.000000
RightUpLeg 3.440114 -4.629788 0.510521
RightLeg 1.508079 -0.000000 -0.000000
RightFoot -12.441944 -8.456615 3.630513
RightToeBase 0.345096 -0.000000 -0.000000
1018
root -5.995525 32.768383 1.892511 2.492229 3.954686 2.180621
Spine -5.134703 5.625718 4.275644
Head -18.895981 -1.301438 3.166281
LeftShoulder -11.774661 21.620284 3.775962
LeftArm 26.032343 42.804158 -66.536822
LeftForeArm -1.859547 -0.000000 18.282269
LeftHand -23.661582 -0.000000 -8.501699
LeftHandThumb1 -26.253704 0.000000 33.147579
RightShoulder -20.836796 9.903682 -18.072275
RightArm -15.044984 -47.117768 97.569353
RightForeArm -9.220384 -0.000000 26.010974
RightHand -1.692221 -0.000000 18.102860
RightHandThumb1 -24.326973 -0.000000 -32.862282
LeftUpLeg -1.705415 1.412831 2.989862
LeftLeg 6.121436 -0.000000 -0.000000
LeftFoot -11.832142 4.591061 -15.418954
LeftToeBase 4.890107 -0.000000 -0.000000
RightUpLeg 3.459710 -4.743275 0.475557
RightLeg 1.456788 -0.000000 -0.000000
RightFoot -12.407510 -8.443089 3.553465
RightToeBase 0.327054 -0.000000 -0.000000
1019
root -5.984284 32.768395 1.894603 2.524176 3.960944 2.183268
Spine -5.149032 5.663726 4.267813
Head -18.859039 -1.233221 3.224672
LeftShoulder -11.811712 21.565674 3.718998
LeftArm 25.711103 42.505249 -67.126412
LeftForeArm -2.321074 0.000000 18.240570
LeftHand -23.521084 0.000000 -8.908683
LeftHandThumb1 -26.253704 0.000000 33.147579
RightShoulder -20.851793 9.890435 -18.008135
RightArm -15.361980 -47.071084 97.882377
RightForeArm -9.069462 -0.000000 25.677548
RightHand -1.615058 -0.000000 18.509159
RightHandThumb1 -24.326973 -0.000000 -32.862282
LeftUpLeg -1.803311 1.407596 2.951129
LeftLeg 6.282683 -0.000000 -0.000000
LeftFoot -11.988621 4.590960 -15.382958
LeftToeBase 4.874462 -0.000000 -0.000000
RightUpLeg 3.428945 -4.955209 0.448086
RightLeg 1.458634 -0.000000 -0.000000
RightFoot -12.371271 -8.364150 3.481838
RightToeBase 0.337308 -0.000000 -0.000000
1020
root -5.974299 32.769908 1.896972 2.556965 3.974930 2.162538
Spine -5.162222 5.683119 4.290829
Head -18.828728 -1.149881 3.273886
LeftShoulder -11.855993 21.480493 3.638484
LeftArm 25.417455 42.262766 -67.666265
LeftForeArm -2.843261 0.000000 18.222793
LeftHand -23.450140 -0.000000 -9.323969
LeftHandThumb1 -26.253704 0.000000 33.147579
RightShoulder -20.816879 9.967829 -17.962904
RightArm -15.774638 -46.821755 98.208354
RightForeArm -9.018470 -0.000000 25.334874
RightHand -1.469452 -0.000000 18.908404
RightHandThumb1 -24.326973 -0.000000 -32.862282
LeftUpLeg -1.904580 1.386246 2.939828
LeftLeg 6.446954 -0.000000 -0.000000
LeftFoot -12.151360 4.585366 -15.328057
LeftToeBase 4.917748 -0.000000 -0.000000
RightUpLeg 3.410307 -5.218929 0.439966
RightLeg 1.419572 -0.000000 -0.000000
RightFoot -12.280534 -8.160927 3.408578
RightToeBase 0.333906 -0.000000 -0.000000
1021
root -5.954622 32.771857 1.899084 2.578857 3.982675 2.186828
Spine -5.146668 5.687332 4.277429
Head -18.834902 -1.055843 3.315092
LeftShoulder -11.914887 21.337802 3.569203
LeftArm 25.115484 42.033102 -68.252251
LeftForeArm -3.410905 -0.000000 18.147897
LeftHand -23.323395 -0.000000 -9.797876
LeftHandThumb1 -26.253704 0.000000 33.147579
RightShoulder -20.815885 9.928813 -17.891155
RightArm -15.935327 -46.627917 98.342723
RightForeArm -8.752788 -0.000000 24.950345
RightHand -1.389059 -0.000000 19.177074
RightHandThumb1 -24.326973 -0.000000 -32.862282
LeftUpLeg -1.987501 1.314135 2.860160
LeftLeg 6.609255 -0.000000 -0.000000
LeftFoot -12.339198 4.616454 -15.354630
LeftToeBase 4.919169 -0.000000 -0.000000
RightUpLeg 3.402334 -5.226391 0.385738
RightLeg 1.400030 -0.000000 -0.000000
RightFoot -12.257531 -8.203430 3.439425
RightToeBase 0.361804 -0.000000 -0.000000
